<svg xmlns="http://www.w3.org/2000/svg" width="1647" height="955" viewBox="0 0 1647 955">
<defs>
  <filter id="paper"><feTurbulence type="fractalNoise" baseFrequency=".7" numOctaves="2" seed="7" result="n"/><feColorMatrix in="n" type="saturate" values="0" result="g"/><feComponentTransfer in="g"><feFuncA type="table" tableValues="0 .08"/></feComponentTransfer></filter>
  <style>
    .ink{fill:#171717;stroke:#171717}.line{fill:none;stroke:#171717;stroke-width:5}.thin{fill:none;stroke:#171717;stroke-width:2}.t{font-family:Arial,Helvetica,sans-serif;fill:#171717;font-weight:800}.head{font-size:70px;letter-spacing:5px}.label{font-size:31px;letter-spacing:2px}.small{font-size:25px}.foot{font-size:31px;font-weight:700}.white{fill:#f4f0e5}
  </style>
</defs>
<rect width="1647" height="955" fill="#eee8d9"/><rect width="1647" height="955" filter="url(#paper)" opacity=".45"/>
<path class="line" d="M32 80 80 30h1487l48 50v795l-40 40H72l-40-40z"/>
<path class="thin" d="M64 110V65h44M1539 65h44v45M64 845v45h44M1539 890h44v-45"/>
<text class="t head" x="823.5" y="132" text-anchor="middle">PROTOCOLO DE DESPLAZAMIENTO</text>
<!-- PC separators -->
<path class="thin" d="M575 180v260M1115 180v260"/>
<!-- WASD -->
<g transform="translate(155 185)">
 <rect class="ink" x="115" y="0" width="95" height="95" rx="9"/><rect class="ink" x="0" y="105" width="95" height="95" rx="9"/><rect class="ink" x="115" y="105" width="95" height="95" rx="9"/><rect class="ink" x="230" y="105" width="95" height="95" rx="9"/>
 <text class="t white" font-size="56" text-anchor="middle" x="162" y="68">W</text><text class="t white" font-size="56" text-anchor="middle" x="47" y="173">A</text><text class="t white" font-size="56" text-anchor="middle" x="162" y="173">S</text><text class="t white" font-size="56" text-anchor="middle" x="277" y="173">D</text>
 <text class="t label" x="162" y="258" text-anchor="middle">MOVERSE</text>
</g>
<!-- space -->
<g transform="translate(640 235)"><rect class="ink" x="0" y="0" width="385" height="105" rx="12"/><rect x="157" y="48" width="72" height="7" rx="4" fill="#eee8d9"/><text class="t label" x="192" y="178" text-anchor="middle">SALTAR</text></g>
<!-- mouse -->
<g transform="translate(1260 178)"><rect class="line" x="0" y="0" width="120" height="205" rx="58"/><path class="thin" d="M0 94q60 34 120 0M60 0v68"/><rect class="ink" x="52" y="28" width="16" height="42" rx="8"/><text class="t label" x="60" y="260" text-anchor="middle">MIRAR</text></g>
<!-- mobile frame -->
<path class="line" d="M72 490h495l28 24h456l28-24h496l32 32v190l-32 32H72l-32-32V522z"/>
<path class="ink" d="M665 482h317l30 32-30 32H665l-30-32z"/><text x="823.5" y="527" text-anchor="middle" font-family="Arial" font-size="33" font-weight="800" fill="#eee8d9" letter-spacing="5">MÓVIL</text>
<!-- mobile left -->
<g transform="translate(200 540)"><circle class="thin" cx="110" cy="70" r="68"/><circle class="ink" cx="110" cy="70" r="43"/><path class="ink" d="m110 0-10 18h20zM110 140l-10-18h20zM40 70l18-10v20zM180 70l-18-10v20z"/><text class="t label" x="110" y="180" text-anchor="middle">MOVERSE</text></g>
<!-- mobile right look -->
<g transform="translate(713 540)"><circle class="thin" cx="110" cy="70" r="68"/><circle class="ink" cx="110" cy="70" r="43"/><path class="thin" d="M110-8v18M110 130v18M32 70h18M170 70h18"/><text class="t label" x="110" y="180" text-anchor="middle">MIRAR</text></g>
<!-- jump button -->
<g transform="translate(1235 540)"><circle class="line" cx="110" cy="70" r="66"/><path class="line" d="m85 87 25-33 25 33"/><text class="t label" x="110" y="180" text-anchor="middle">SALTAR</text></g>
<!-- footer -->
<path class="thin" d="M60 783h1527"/><g transform="translate(75 810)"><path class="line" d="M0 60 30 4l30 56z"/><text class="t" x="30" y="49" text-anchor="middle" font-size="36">!</text></g>
<text class="t foot" x="165" y="860">Camina con cuidado. Podrías morir y ya limpiamos hoy.</text>
<!-- corporation signature -->
<g transform="translate(1290 790) scale(.28)"><path d="M60 25h700l-95 150H155z" fill="none" stroke="#171717" stroke-width="18"/><path d="M80 45h660l-85 130H165z" fill="none" stroke="#171717" stroke-width="8"/><text class="t" x="410" y="120" text-anchor="middle" font-size="80">CORPORACION</text><path d="M0 170h820l-45 115H45z" fill="none" stroke="#171717" stroke-width="18"/><text class="t" x="410" y="260" text-anchor="middle" font-size="105">COCHINOCA</text><path d="M310 285h200l-45 110H355z" fill="none" stroke="#171717" stroke-width="18"/></g>
</svg>